HIERARCHY
ROOT hip
{
	OFFSET 0.000000 0.000000 0.000000 
	CHANNELS 6 Xposition Yposition Zposition Xrotation Zrotation Yrotation
	JOINT abdomen
	{
		OFFSET 0.000000 3.402643 0.000000 
		CHANNELS 3 Xrotation Zrotation Yrotation
		JOINT chest
		{
			OFFSET 0.000000 8.438565 -0.680529 
			CHANNELS 3 Xrotation Zrotation Yrotation
			JOINT neck
			{
				OFFSET 0.000000 10.207942 -0.272212 
				CHANNELS 3 Xrotation Zrotation Yrotation
				JOINT head
				{
					OFFSET 0.000000 3.130431 0.000000 
					CHANNELS 3 Xrotation Zrotation Yrotation
					End Site
					{
						OFFSET 0.000000 3.130435 0.000000 
					}
				}
			}
			JOINT lCollar
			{
				OFFSET 3.470700 6.669187 -0.816635 
				CHANNELS 3 Yrotation Zrotation Xrotation
				JOINT lShldr
				{
					OFFSET 3.198488 0.000000 0.000000 
					CHANNELS 3 Zrotation Yrotation Xrotation
					JOINT lForeArm
					{
						OFFSET 10.139888 0.000000 0.000000 
						CHANNELS 3 Yrotation Zrotation Xrotation
						JOINT lHand
						{
							OFFSET 8.370511 0.000000 0.000000 
							CHANNELS 3 Zrotation Yrotation Xrotation
							End Site
							{
								OFFSET 4.083176 0.000000 0.000000 
							}
						}
					}
				}
			}
			JOINT rCollar
			{
				OFFSET -3.470700 6.669187 -0.816635 
				CHANNELS 3 Yrotation Zrotation Xrotation
				JOINT rShldr
				{
					OFFSET -3.198488 0.000000 0.000000 
					CHANNELS 3 Zrotation Yrotation Xrotation
					JOINT rForeArm
					{
						OFFSET -10.139888 0.000000 0.000000 
						CHANNELS 3 Yrotation Zrotation Xrotation
						JOINT rHand
						{
							OFFSET -8.370511 0.000000 0.000000 
							CHANNELS 3 Zrotation Yrotation Xrotation
							End Site
							{
								OFFSET -4.083176 0.000000 0.000000 
							}
						}
					}
				}
			}
		}
	}
	JOINT lThigh
	{
		OFFSET 5.308129 -1.633274 1.361059 
		CHANNELS 3 Xrotation Zrotation Yrotation
		JOINT lShin
		{
			OFFSET -2.041588 -20.007561 0.000000 
			CHANNELS 3 Xrotation Zrotation Yrotation
			JOINT lFoot
			{
				OFFSET 0.000000 -19.190928 -1.224953 
				CHANNELS 3 Xrotation Yrotation Zrotation
				End Site
				{
					OFFSET 0.000000 -2.449906 4.627600 
				}
			}
		}
	}
	JOINT rThigh
	{
		OFFSET -5.308129 -1.633274 1.361059 
		CHANNELS 3 Xrotation Zrotation Yrotation
		JOINT rShin
		{
			OFFSET 2.041588 -20.007561 0.000000 
			CHANNELS 3 Xrotation Zrotation Yrotation
			JOINT rFoot
			{
				OFFSET 0.000000 -19.190928 -1.224953 
				CHANNELS 3 Xrotation Yrotation Zrotation
				End Site
				{
					OFFSET 0.000000 -2.449906 4.627600 
				}
			}
		}
	}
}
MOTION
Frames: 20
Frame Time: 0.016667
36.726761 45.180042 48.380756 16.221163 8.340991 -89.124992 4.176476 3.244919 -0.012214 1.696923 4.095443 -0.710259 14.184506 14.442898 -12.618952 25.409832 10.555922 -5.924683 -0.966184 -2.090659 -0.113862 -67.505058 6.913278 -56.748714 -29.315941 -0.286431 24.927006 1.592163 -3.389327 11.409147 0.956406 2.080914 -0.113715 44.391624 -6.016421 -78.259529 28.213327 1.102507 -0.844836 -1.468390 3.213574 -35.106407 -45.917168 23.325708 -5.721697 80.140244 1.590349 6.115197 -25.010899 -5.946678 -3.072839 -14.653392 -5.613417 -3.905233 34.275848 -5.873071 -3.896094 -19.440294 -0.468225 0.919560 
36.543770 45.169563 48.660297 16.211596 7.871735 -88.441132 4.126953 3.125842 -0.119351 1.630542 4.190090 -0.773617 14.224400 14.037056 -12.602375 25.262896 10.235476 -5.920956 -0.966184 -2.090659 -0.113862 -66.854584 6.896083 -56.223129 -29.758461 -0.292133 24.924469 1.592163 -3.389327 10.823209 0.956406 2.080914 -0.113715 45.286304 -6.697461 -77.709389 28.847872 1.092647 -0.838739 -1.470208 3.224301 -36.414993 -45.739311 22.928450 -5.508245 80.288277 1.545052 6.110902 -25.472368 -6.134226 -3.275554 -13.629019 -6.033276 -5.101271 33.729359 -5.986160 -3.842935 -19.372334 -0.386305 0.889602 
36.401287 45.138355 49.003078 16.989744 7.840323 -87.818108 3.921595 3.141713 -0.148301 1.477685 3.923263 -0.761528 14.863425 13.942460 -12.440914 25.541609 10.061502 -5.849936 -0.966184 -2.090659 -0.113862 -66.297791 6.865261 -55.926517 -30.268145 -0.300097 24.918571 1.592163 -3.389327 10.823209 0.956406 2.080914 -0.113715 45.944271 -7.306396 -78.986397 28.213327 1.102507 -0.844836 -1.469111 3.213070 -34.872036 -46.418652 23.170998 -5.810241 80.437035 1.515531 6.138524 -25.428352 -6.987926 -3.655019 -12.801011 -5.448374 -5.310458 32.596264 -6.083774 -3.745839 -18.663540 -0.847674 0.689253 
36.253979 45.116337 49.317360 17.196062 8.271046 -87.372574 3.696645 3.080086 -0.011238 1.637353 4.059535 -0.667625 15.029966 13.947079 -12.277831 25.558895 10.013759 -5.772661 -0.966184 -2.090659 -0.113862 -65.825241 6.750720 -55.492947 -30.816126 -0.311104 24.912405 1.592163 -3.389327 10.637664 0.956406 2.080914 -0.113715 46.735279 -8.332503 -78.863708 28.242617 1.102051 -0.844557 -1.468750 3.213322 -34.989223 -47.210567 23.093084 -5.317542 80.428139 1.486036 6.134212 -25.665199 -7.345615 -3.845583 -12.369009 -5.466570 -5.485774 31.211260 -6.180411 -3.643006 -17.897823 -1.572377 0.435489 
36.093243 45.110332 49.698177 17.756237 8.208695 -86.316681 3.520449 3.015836 0.032836 1.573360 3.818723 -0.601583 15.058599 13.558578 -12.229443 25.423832 9.711475 -5.732098 -0.966184 -2.090659 -0.113862 -64.940895 6.326061 -54.822464 -31.203997 -0.313520 24.911383 1.592163 -3.389327 10.559538 0.956406 2.080914 -0.113715 48.077583 -9.680074 -78.360664 28.740486 1.094311 -0.839778 -1.466507 3.214911 -35.721638 -47.833225 22.838497 -5.487601 80.450592 1.428233 6.152864 -25.837307 -6.896969 -3.754547 -11.120696 -4.989024 -5.435547 29.593964 -6.307711 -3.491490 -17.780291 -2.856295 0.016639 
35.929333 45.038033 50.063564 19.553146 8.381732 -85.619278 3.375776 3.656577 -0.099334 1.805019 4.111597 -0.677118 15.785160 13.424198 -11.150981 25.775578 9.796530 -5.241190 -0.966184 -2.090659 -0.113862 -65.455338 6.883072 -55.054996 -32.246201 -0.331892 24.904888 1.592163 -3.389327 10.784147 0.956406 2.080914 -0.113715 47.722126 -9.909229 -77.459099 28.486666 1.098252 -0.842223 -1.469843 3.224571 -36.541943 -49.268917 24.166695 -5.977529 81.100098 1.330123 6.178176 -26.449995 -6.799650 -3.763464 -10.094478 -3.202133 -5.205505 27.403908 -6.395042 -3.278059 -16.976038 -4.127342 -0.353385 
35.752823 44.965263 50.501953 20.218542 8.438995 -84.454124 3.229447 3.752638 -0.026739 1.890777 4.007318 -0.605992 15.970050 13.119101 -10.800149 25.848783 9.680501 -5.058726 -0.966184 -2.090659 -0.113862 -64.801224 6.605493 -53.884956 -32.786907 -0.346592 24.901133 1.592163 -3.389327 11.252898 0.956406 2.080914 -0.113715 48.267101 -11.067986 -77.787003 28.262138 1.101746 -0.844371 -1.469618 3.224737 -36.620064 -49.968578 23.993311 -5.931139 81.474762 1.271059 6.208664 -26.163630 -7.220630 -3.965917 -8.971272 -2.635757 -4.892991 25.837008 -6.532631 -3.131840 -16.298885 -5.827258 -0.781266 
35.544991 44.945713 50.918564 20.105255 8.537010 -83.422501 2.964629 3.718722 -0.302761 1.910496 4.425391 -0.753409 16.616089 12.663686 -9.838480 26.064436 9.631971 -4.633784 -0.966184 -2.090659 -0.113862 -64.542740 6.900066 -53.598412 -33.435917 -0.352963 24.891953 1.592163 -3.389327 11.487273 0.956406 2.080914 -0.113715 48.436844 -11.815792 -77.247559 28.515955 1.097797 -0.841942 -1.462111 3.218153 -37.176159 -49.908573 23.221460 -4.863214 81.380150 1.183773 6.207274 -26.096823 -6.171494 -3.564427 -8.064103 -2.948264 -4.878923 24.630407 -6.687650 -3.003589 -15.561384 -7.526760 -1.170093 
35.390499 44.985752 51.383099 21.143085 8.525544 -82.205551 2.662480 4.046686 -0.220840 1.804645 4.502459 -0.698887 16.547142 11.845842 -9.388492 25.917902 9.293681 -4.412814 -0.966184 -2.090659 -0.113862 -64.124557 6.608359 -52.731682 -33.845638 -0.358149 24.891233 1.590102 -3.398873 12.161677 0.956406 2.080914 -0.113715 48.171299 -12.176059 -79.862885 27.734894 1.101341 -0.844815 -1.470237 3.224280 -36.405228 -50.426338 23.319271 -5.266553 81.311874 1.183949 6.210754 -26.505152 -6.419790 -3.775056 -6.773326 -1.961631 -4.444957 22.581289 -6.824522 -2.810214 -14.588629 -9.151310 -1.429309 
35.229767 45.011654 51.904392 21.075939 8.730488 -80.830681 2.251269 3.969588 -0.147595 1.577571 4.433569 -0.632568 16.679850 11.498295 -8.723309 25.868488 9.296133 -4.117965 -0.966184 -2.090659 -0.113862 -63.501915 6.114482 -51.350479 -34.074039 -0.360258 24.893442 1.590097 -3.398872 12.190973 0.956406 2.080914 -0.113715 48.683548 -13.806024 -80.249573 27.734894 1.101341 -0.844815 -1.461995 3.218241 -37.215218 -50.319958 22.137541 -5.179346 80.753036 1.242663 6.218474 -27.335007 -7.331317 -4.387234 -6.061285 -2.254416 -4.499444 21.356596 -7.021220 -2.670067 -14.027671 -10.888888 -1.698493 
35.124374 45.134003 52.516590 20.003586 9.352580 -79.972687 1.692553 3.493090 -0.029005 1.185885 4.442997 -0.535843 16.899355 10.993467 -7.921473 25.771582 9.141913 -3.750876 -0.966184 -2.090659 -0.113862 -62.663097 5.611785 -50.150230 -34.246765 -0.367273 24.886047 1.590087 -3.398870 12.249567 0.956406 2.080914 -0.113715 49.246479 -15.613531 -80.565987 27.588459 1.103626 -0.846210 -1.465467 3.215662 -36.063435 -49.403683 20.146595 -4.205931 79.440582 1.318746 6.216765 -28.648460 -8.283846 -5.178865 -6.090008 -3.630213 -4.497760 21.155958 -7.215036 -2.601228 -12.512016 -13.366604 -1.789255 
35.016983 45.338654 53.167877 20.031803 9.811363 -79.236549 1.281385 3.285573 0.158939 1.012565 4.148039 -0.396242 17.081911 10.235636 -7.356027 25.686546 8.818556 -3.492961 -0.966184 -2.090659 -0.113862 -62.178505 5.292719 -49.257702 -34.686222 -0.371299 24.886265 1.590086 -3.398870 12.259334 0.956406 2.080914 -0.113715 48.789993 -16.051611 -82.306114 26.133801 1.117746 -0.855442 -1.480251 3.217355 -33.007359 -48.899117 19.157606 -4.224493 78.005775 1.525471 6.201948 -29.437546 -9.980732 -6.291599 -6.170115 -3.856321 -3.945086 20.882002 -7.259803 -2.592065 -11.063844 -15.806066 -1.858698 
35.002735 45.561916 53.821526 20.360374 10.278359 -78.418419 1.007098 3.022782 0.308359 1.027049 3.409545 -0.238812 17.305719 9.949512 -6.737746 25.742220 8.741139 -3.174714 -0.966184 -2.090659 -0.113862 -61.615547 4.983676 -48.258652 -35.530632 -0.386754 24.873119 1.592163 -3.389327 11.536101 0.956406 2.080914 -0.113715 49.015987 -16.594944 -83.045097 25.733467 1.115276 -0.854884 -1.483529 3.232208 -32.128426 -48.404755 18.153225 -4.681655 76.287605 1.711410 6.172528 -30.840508 -9.812492 -6.605816 -6.353136 -3.727878 -2.569128 20.523182 -7.303430 -2.550623 -10.065390 -19.010174 -2.079511 
35.011211 45.838165 54.482235 19.986267 10.920168 -77.854706 0.634361 2.765622 0.708833 0.738576 3.134014 -0.008216 17.440247 9.176482 -6.458861 25.735199 8.376737 -3.013744 -0.966184 -2.090659 -0.113862 -61.352905 4.710446 -46.098030 -36.232151 -0.394008 24.868910 1.592163 -3.389327 10.715788 0.956406 2.080914 -0.113715 48.839832 -16.990786 -85.159615 24.757162 1.121877 -0.859741 -1.484739 3.231456 -31.689528 -47.558697 16.520458 -4.175245 74.188194 1.906707 6.152765 -31.611164 -9.693974 -6.861128 -7.057719 -4.285455 -2.332819 20.915882 -7.251388 -2.590983 -9.048758 -22.212711 -2.194094 
35.020752 46.213207 55.096436 19.411642 11.541505 -77.275192 0.488400 2.806159 0.457366 0.795568 3.591453 -0.160328 17.860138 7.777698 -5.243242 25.869703 8.071732 -2.480213 -0.966184 -2.090659 -0.113862 -62.156574 4.959664 -45.977612 -36.781509 -0.397109 24.865564 1.592163 -3.389327 10.725554 0.956406 2.080914 -0.113715 48.211811 -16.673252 -85.470894 24.298338 1.129168 -0.863927 -1.484442 3.231639 -31.796951 -46.608662 14.657132 -3.160944 72.039566 2.102222 6.131248 -32.219814 -7.707107 -5.926843 -8.108261 -4.946617 -2.852440 21.444530 -7.128656 -2.651622 -7.195566 -25.762648 -2.011603 
35.098942 46.649948 55.650223 19.885674 11.600687 -75.936096 0.508468 2.968415 0.130353 0.761463 3.330115 -0.299842 18.184259 6.438431 -4.343949 26.032066 7.719304 -2.067455 -0.966184 -2.090659 -0.113862 -62.510979 4.658059 -45.989380 -37.031441 -0.409613 24.859873 1.592163 -3.389327 10.334929 0.956406 2.080914 -0.113715 48.656330 -16.498737 -86.006119 24.425245 1.127148 -0.862775 -1.483851 3.232007 -32.011246 -46.054070 13.424912 -3.371657 69.956955 2.315665 6.077871 -31.815527 -6.568948 -5.268430 -8.669207 -4.246652 -3.365421 22.112520 -6.912373 -2.747289 -6.619428 -29.408770 -2.308697 
35.187374 47.196556 56.079315 20.146246 11.609656 -75.054878 0.604390 2.775937 0.876955 0.583951 2.602783 0.098472 18.184740 5.993586 -4.305073 26.116503 7.379923 -1.965253 -0.966184 -2.090659 -0.113862 -61.623108 3.230522 -44.534645 -37.222637 -0.416583 24.862316 1.592163 -3.389327 9.856414 0.956406 2.080914 -0.113715 50.784393 -17.730927 -87.411461 24.962170 1.118631 -0.857853 -1.480897 3.216937 -32.792519 -45.189735 12.576628 -3.086202 67.650375 2.494340 6.023727 -32.520023 -5.329695 -4.690895 -9.598447 -3.564139 -5.422984 23.962378 -6.640083 -2.960261 -6.006153 -28.476187 -2.102705 
35.407452 47.507423 56.340611 20.814674 11.845201 -74.491928 0.533704 2.877172 1.307385 0.344303 2.193491 0.338431 17.839035 5.439974 -3.701552 25.923956 7.247559 -1.652758 -0.966184 -2.090659 -0.113862 -61.533924 2.706914 -43.991398 -37.793385 -0.422012 24.855932 1.592163 -3.389327 9.153289 0.956406 2.080914 -0.113715 52.273476 -18.381157 -87.410637 25.382027 1.120828 -0.858136 -1.476607 3.219774 -34.228054 -45.027302 12.460182 -3.095519 65.584930 2.727842 5.967400 -31.785088 -5.119119 -4.478098 -11.471203 -2.557807 -6.952621 27.184345 -6.264310 -3.322174 -6.639245 -19.609097 -1.580761 
35.653557 47.960419 56.588478 18.757393 12.840747 -74.013451 0.553945 2.382997 1.153043 0.127483 2.824714 0.218331 17.525101 4.532778 -2.993833 25.742531 7.142453 -1.357662 -0.966184 -2.090659 -0.113862 -62.076176 2.271686 -44.514858 -38.615063 -0.431957 24.855062 1.592163 -3.389327 8.206023 0.956406 2.080914 -0.113715 53.538960 -18.411057 -87.149384 26.407145 1.113440 -0.852901 -1.465230 3.215835 -36.141552 -44.234814 9.754712 -1.413259 62.893059 2.913888 5.861688 -30.668980 -5.015400 -4.369370 -14.120279 -4.404180 -8.284951 32.212147 -5.956441 -3.763976 -9.387662 -10.315448 -0.892075 
35.873398 48.403996 56.663723 17.273375 13.151894 -72.983696 0.781370 3.342786 -0.651424 0.082689 5.745765 -0.920236 17.674065 3.116024 0.339839 25.811535 7.868636 -0.012356 -0.966184 -2.090659 -0.113862 -65.707832 3.944041 -48.498253 -39.918900 -0.449590 24.835867 1.592163 -3.389327 7.864226 0.956406 2.080914 -0.113715 50.733021 -15.340600 -84.862793 26.631674 1.109911 -0.850799 -1.462796 3.212823 -38.201572 -43.519859 8.055162 -0.134459 60.808430 3.089450 5.795249 -29.531567 -7.257575 -5.500302 -15.837029 -5.174563 -10.694067 37.399929 -5.575947 -4.194862 -12.269184 -4.716274 -0.031415 
